<svg class="animated absolute z-20" id="freepik_stories-process" xmlns="http://www.w3.org/2000/svg" xmlns:xlink="http://www.w3.org/1999/xlink" viewBox="0 0 500 500" version="1.1" xmlns:svgjs="http://svgjs.com/svgjs"><style>svg#freepik_stories-process:not(.animated) .animable {opacity: 0;}svg#freepik_stories-process.animated #freepik--background-simple--inject-3 {animation: 1s 1 forwards cubic-bezier(.36,-0.01,.5,1.38) fadeIn;animation-delay: 0s;}svg#freepik_stories-process.animated #freepik--Gears--inject-3 {animation: 1s 1 forwards cubic-bezier(.36,-0.01,.5,1.38) slideRight;animation-delay: 0s;}svg#freepik_stories-process.animated #freepik--Belt--inject-3 {animation: 1s 1 forwards cubic-bezier(.36,-0.01,.5,1.38) slideRight;animation-delay: 0s;}svg#freepik_stories-process.animated #freepik--Plant--inject-3 {animation: 1s 1 forwards cubic-bezier(.36,-0.01,.5,1.38) slideLeft;animation-delay: 0s;}svg#freepik_stories-process.animated #freepik--Process--inject-3 {animation: 1s 1 forwards cubic-bezier(.36,-0.01,.5,1.38) slideLeft;animation-delay: 0s;}svg#freepik_stories-process.animated #freepik--Character--inject-3 {animation: 1s 1 forwards cubic-bezier(.36,-0.01,.5,1.38) slideLeft;animation-delay: 0s;}svg#freepik_stories-process.animated #freepik--Floor--inject-3 {animation: 1s 1 forwards cubic-bezier(.36,-0.01,.5,1.38) lightSpeedLeft;animation-delay: 0s;}            @keyframes fadeIn {                0% {                    opacity: 0;                }                100% {                    opacity: 1;                }            }                    @keyframes slideRight {                0% {                    opacity: 0;                    transform: translateX(30px);                }                100% {                    opacity: 1;                    transform: translateX(0);                }            }                    @keyframes slideLeft {                0% {                    opacity: 0;                    transform: translateX(-30px);                }                100% {                    opacity: 1;                    transform: translateX(0);                }            }                    @keyframes lightSpeedLeft {              from {                transform: translate3d(-50%, 0, 0) skewX(20deg);                opacity: 0;              }              60% {                transform: skewX(-10deg);                opacity: 1;              }              80% {                transform: skewX(2deg);              }              to {                opacity: 1;                transform: translate3d(0, 0, 0);              }            }        </style><g id="freepik--background-simple--inject-3" style="transform-origin: 250.171px 222.768px 0px;" class="animable"><path d="M430.72,402.4c70.77-70.77,52.87-203.15-36.91-292.93S176.47,6.61,105.7,77.38C-67.22,250.3,82.24,456,173.06,367.31,369.94,175,360,473.17,430.72,402.4Z" style="fill: rgb(255, 193, 0); transform-origin: 250.171px 222.768px 0px;" id="el6yovms49hgo" class="animable"></path><g id="el94jz07h9x3m"><path d="M430.72,402.4c70.77-70.77,52.87-203.15-36.91-292.93S176.47,6.61,105.7,77.38C-67.22,250.3,82.24,456,173.06,367.31,369.94,175,360,473.17,430.72,402.4Z" style="fill: rgb(255, 255, 255); opacity: 0.7; transform-origin: 250.171px 222.768px 0px;" class="animable"></path></g></g><g id="freepik--Gears--inject-3" style="transform-origin: 263.515px 359.88px 0px;" class="animable"><path d="M325.28,335.12l-5.82.09a29,29,0,0,0-2.6-4.49l3-5a35.1,35.1,0,0,0-5.17-5.17l-5,3a29.14,29.14,0,0,0-4.5-2.61l.1-5.81a34,34,0,0,0-7.06-1.89l-2.83,5.09c-.86-.08-1.72-.12-2.6-.12s-1.74,0-2.59.12l-2.83-5.09a34,34,0,0,0-7.06,1.89l.1,5.81a28.68,28.68,0,0,0-4.5,2.61l-5-3a35.1,35.1,0,0,0-5.17,5.17l3,5a29,29,0,0,0-2.6,4.49l-5.82-.09a34.64,34.64,0,0,0-1.89,7.06l5.09,2.83c-.08.85-.12,1.72-.12,2.59s0,1.74.12,2.6L258.44,353a34.64,34.64,0,0,0,1.89,7.06l5.82-.1a29.08,29.08,0,0,0,2.6,4.5l-3,5a35.1,35.1,0,0,0,5.17,5.17l5-3,4.5,2.6-.1,5.81a34.66,34.66,0,0,0,7.06,1.9l2.83-5.09c.85.07,1.72.12,2.59.12s1.74-.05,2.6-.12l2.83,5.09a34.66,34.66,0,0,0,7.06-1.9l-.1-5.81a29.92,29.92,0,0,0,4.5-2.6l5,3a35.1,35.1,0,0,0,5.17-5.17l-3-5a29.08,29.08,0,0,0,2.6-4.5l5.82.1a34.64,34.64,0,0,0,1.89-7.06l-5.09-2.83c.07-.86.12-1.72.12-2.6s-.05-1.74-.12-2.59l5.09-2.83A34.64,34.64,0,0,0,325.28,335.12Z" style="fill: rgb(255, 255, 255); stroke: rgb(38, 50, 56); stroke-linecap: round; stroke-linejoin: round; transform-origin: 292.805px 347.59px 0px;" id="el3uihreb4qmt" class="animable"></path><circle cx="292.8" cy="347.6" r="23.93" style="fill: rgb(255, 255, 255); stroke: rgb(38, 50, 56); stroke-linecap: round; stroke-linejoin: round; transform-origin: 292.8px 347.6px 0px;" id="el363909exg38" class="animable"></circle><polygon points="304.25 354.21 304.25 341 292.8 334.39 281.36 341 281.36 354.21 292.8 360.82 304.25 354.21" style="fill: rgb(255, 255, 255); stroke: rgb(38, 50, 56); stroke-linecap: round; stroke-linejoin: round; transform-origin: 292.805px 347.605px 0px;" id="elgkqk1ruc85b" class="animable"></polygon><path d="M257.51,366.11l-5,.08a25.25,25.25,0,0,0-2.24-3.88l2.58-4.31a30.83,30.83,0,0,0-4.46-4.46l-4.31,2.58a25.79,25.79,0,0,0-3.88-2.25l.08-5a30.19,30.19,0,0,0-6.09-1.63l-2.44,4.39c-.74-.06-1.49-.1-2.24-.1s-1.51,0-2.25.1l-2.44-4.39a30.19,30.19,0,0,0-6.09,1.63l.08,5a25.79,25.79,0,0,0-3.88,2.25l-4.3-2.58a30.4,30.4,0,0,0-4.47,4.46l2.58,4.31a25.25,25.25,0,0,0-2.24,3.88l-5-.08a29.56,29.56,0,0,0-1.64,6.09l4.4,2.44c-.07.74-.11,1.49-.11,2.24s0,1.5.11,2.24l-4.4,2.44a29.66,29.66,0,0,0,1.64,6.1l5-.09a25.35,25.35,0,0,0,2.24,3.89l-2.58,4.3a29.92,29.92,0,0,0,4.47,4.46l4.3-2.58a25.79,25.79,0,0,0,3.88,2.25l-.08,5a29.55,29.55,0,0,0,6.09,1.63l2.44-4.39c.74.06,1.49.1,2.25.1s1.5,0,2.24-.1l2.44,4.39a29.55,29.55,0,0,0,6.09-1.63l-.08-5a25.79,25.79,0,0,0,3.88-2.25l4.31,2.58a30.33,30.33,0,0,0,4.46-4.46l-2.58-4.3a25.35,25.35,0,0,0,2.24-3.89l5,.09a29.66,29.66,0,0,0,1.64-6.1l-4.4-2.44c.07-.74.11-1.48.11-2.24s0-1.5-.11-2.24l4.4-2.44A29.56,29.56,0,0,0,257.51,366.11Z" style="fill: rgb(255, 255, 255); stroke: rgb(38, 50, 56); stroke-linecap: round; stroke-linejoin: round; transform-origin: 229.505px 376.88px 0px;" id="el2awwgpdh1pm" class="animable"></path><g id="elko02slj4ta"><path d="M257.51,366.11l-5,.08a25.25,25.25,0,0,0-2.24-3.88l2.58-4.31a30.83,30.83,0,0,0-4.46-4.46l-4.31,2.58a25.79,25.79,0,0,0-3.88-2.25l.08-5a30.19,30.19,0,0,0-6.09-1.63l-2.44,4.39c-.74-.06-1.49-.1-2.24-.1s-1.51,0-2.25.1l-2.44-4.39a30.19,30.19,0,0,0-6.09,1.63l.08,5a25.79,25.79,0,0,0-3.88,2.25l-4.3-2.58a30.4,30.4,0,0,0-4.47,4.46l2.58,4.31a25.25,25.25,0,0,0-2.24,3.88l-5-.08a29.56,29.56,0,0,0-1.64,6.09l4.4,2.44c-.07.74-.11,1.49-.11,2.24s0,1.5.11,2.24l-4.4,2.44a29.66,29.66,0,0,0,1.64,6.1l5-.09a25.35,25.35,0,0,0,2.24,3.89l-2.58,4.3a29.92,29.92,0,0,0,4.47,4.46l4.3-2.58a25.79,25.79,0,0,0,3.88,2.25l-.08,5a29.55,29.55,0,0,0,6.09,1.63l2.44-4.39c.74.06,1.49.1,2.25.1s1.5,0,2.24-.1l2.44,4.39a29.55,29.55,0,0,0,6.09-1.63l-.08-5a25.79,25.79,0,0,0,3.88-2.25l4.31,2.58a30.33,30.33,0,0,0,4.46-4.46l-2.58-4.3a25.35,25.35,0,0,0,2.24-3.89l5,.09a29.66,29.66,0,0,0,1.64-6.1l-4.4-2.44c.07-.74.11-1.48.11-2.24s0-1.5-.11-2.24l4.4-2.44A29.56,29.56,0,0,0,257.51,366.11Z" style="fill: rgb(255, 255, 255); stroke: rgb(38, 50, 56); stroke-linecap: round; stroke-linejoin: round; opacity: 0.3; transform-origin: 229.505px 376.88px 0px;" class="animable"></path></g><g id="elx740i2i274p"><circle cx="229.49" cy="377.42" r="8.6" style="fill: rgb(255, 255, 255); stroke: rgb(38, 50, 56); stroke-linecap: round; stroke-linejoin: round; transform-origin: 229.49px 377.42px 0px; transform: rotate(-7deg);" class="animable"></circle></g></g><g id="freepik--Belt--inject-3" style="transform-origin: 250.164px 280.445px 0px;" class="animable"><line x1="112.33" y1="276.47" x2="121.02" y2="260.45" style="fill: none; stroke: rgb(38, 50, 56); stroke-linecap: round; stroke-linejoin: round; transform-origin: 116.675px 268.46px 0px;" id="el1pe1k8t74ez" class="animable"></line><line x1="181.65" y1="276.6" x2="185.69" y2="260.45" style="fill: none; stroke: rgb(38, 50, 56); stroke-linecap: round; stroke-linejoin: round; transform-origin: 183.67px 268.525px 0px;" id="eld3v25ejtfr" class="animable"></line><line x1="250.96" y1="276.74" x2="250.36" y2="260.45" style="fill: none; stroke: rgb(38, 50, 56); stroke-linecap: round; stroke-linejoin: round; transform-origin: 250.66px 268.595px 0px;" id="elfl2aqo0z8r" class="animable"></line><line x1="320.28" y1="276.88" x2="315.04" y2="260.45" style="fill: none; stroke: rgb(38, 50, 56); stroke-linecap: round; stroke-linejoin: round; transform-origin: 317.66px 268.665px 0px;" id="elvtltq4l54p" class="animable"></line><line x1="389.6" y1="277.02" x2="379.71" y2="260.45" style="fill: none; stroke: rgb(38, 50, 56); stroke-linecap: round; stroke-linejoin: round; transform-origin: 384.655px 268.735px 0px;" id="ela5y3el1pgd4" class="animable"></line><path d="M452.23,276.86A12.57,12.57,0,0,1,463,282.77l-.69-1.64-17.94-20.68h-388l-16.52,19a12.84,12.84,0,0,1,7.84-2.62Z" style="fill: none; stroke: rgb(38, 50, 56); stroke-linecap: round; stroke-linejoin: round; transform-origin: 251.425px 271.61px 0px;" id="el5pl91u0mlg9" class="animable"></path><path d="M465.12,287.81l-.8-1.92a10.24,10.24,0,0,1,.3,1.92Z" style="fill: none; stroke: rgb(38, 50, 56); stroke-linecap: round; stroke-linejoin: round; transform-origin: 464.72px 286.85px 0px;" id="elaj9qaw3j0pg" class="animable"></path><path d="M464.32,285.89a11.6,11.6,0,0,0-1.31-3.12,12.57,12.57,0,0,0-10.78-5.91H47.66a12.84,12.84,0,0,0-7.84,2.62c-.34.27-.66.54-1,.83a11.59,11.59,0,0,0-2.2,2.83,11,11,0,0,0-1.4,4.67,7.75,7.75,0,0,0,0,.84c0,6.51,5.57,11.79,12.44,11.79H452.23A12.76,12.76,0,0,0,461,297a11.45,11.45,0,0,0,3.64-8.34,7.75,7.75,0,0,0,0-.84A10.24,10.24,0,0,0,464.32,285.89ZM50.29,297A8.26,8.26,0,1,1,59,288.78,8.48,8.48,0,0,1,50.29,297Zm66.61,0a8.26,8.26,0,1,1,8.71-8.25A8.48,8.48,0,0,1,116.9,297Zm66.61,0a8.26,8.26,0,1,1,8.71-8.25A8.48,8.48,0,0,1,183.51,297Zm66.61,0a8.26,8.26,0,1,1,8.71-8.25A8.48,8.48,0,0,1,250.12,297Zm66.61,0a8.26,8.26,0,1,1,8.71-8.25A8.48,8.48,0,0,1,316.73,297Zm66.61,0a8.26,8.26,0,1,1,8.71-8.25A8.48,8.48,0,0,1,383.34,297ZM450,297a8.26,8.26,0,1,1,8.7-8.25A8.48,8.48,0,0,1,450,297Z" style="fill: none; stroke: rgb(38, 50, 56); stroke-linecap: round; stroke-linejoin: round; transform-origin: 249.93px 288.65px 0px;" id="elqzgastkmmvi" class="animable"></path><path d="M50.29,280.53A8.26,8.26,0,1,0,59,288.78,8.48,8.48,0,0,0,50.29,280.53Zm0,11a2.73,2.73,0,1,1,2.88-2.73A2.8,2.8,0,0,1,50.29,291.51Z" style="fill: none; stroke: rgb(38, 50, 56); stroke-linecap: round; stroke-linejoin: round; transform-origin: 50.74px 288.782px 0px;" id="elw3v7au74k98" class="animable"></path><path d="M50.29,286.05a2.73,2.73,0,1,0,2.88,2.73A2.8,2.8,0,0,0,50.29,286.05Z" style="fill: none; stroke: rgb(38, 50, 56); stroke-linecap: round; stroke-linejoin: round; transform-origin: 50.44px 288.777px 0px;" id="el56nchmo3btt" class="animable"></path><path d="M116.9,280.53a8.26,8.26,0,1,0,8.71,8.25A8.48,8.48,0,0,0,116.9,280.53Zm0,11a2.73,2.73,0,1,1,2.88-2.73A2.8,2.8,0,0,1,116.9,291.51Z" style="fill: none; stroke: rgb(38, 50, 56); stroke-linecap: round; stroke-linejoin: round; transform-origin: 117.35px 288.782px 0px;" id="elkfxn4upwjy" class="animable"></path><path d="M116.9,286.05a2.73,2.73,0,1,0,2.88,2.73A2.8,2.8,0,0,0,116.9,286.05Z" style="fill: none; stroke: rgb(38, 50, 56); stroke-linecap: round; stroke-linejoin: round; transform-origin: 117.05px 288.777px 0px;" id="el0bqwr59ngf7" class="animable"></path><path d="M183.51,280.53a8.26,8.26,0,1,0,8.71,8.25A8.48,8.48,0,0,0,183.51,280.53Zm0,11a2.73,2.73,0,1,1,2.88-2.73A2.8,2.8,0,0,1,183.51,291.51Z" style="fill: none; stroke: rgb(38, 50, 56); stroke-linecap: round; stroke-linejoin: round; transform-origin: 183.96px 288.782px 0px;" id="elgdgidwe7wos" class="animable"></path><path d="M183.51,286.05a2.73,2.73,0,1,0,2.88,2.73A2.8,2.8,0,0,0,183.51,286.05Z" style="fill: none; stroke: rgb(38, 50, 56); stroke-linecap: round; stroke-linejoin: round; transform-origin: 183.66px 288.777px 0px;" id="elo6wx5d3w82a" class="animable"></path><path d="M250.12,280.53a8.26,8.26,0,1,0,8.71,8.25A8.48,8.48,0,0,0,250.12,280.53Zm0,11a2.73,2.73,0,1,1,2.88-2.73A2.8,2.8,0,0,1,250.12,291.51Z" style="fill: none; stroke: rgb(38, 50, 56); stroke-linecap: round; stroke-linejoin: round; transform-origin: 250.57px 288.782px 0px;" id="elvrtmw0vxgoj" class="animable"></path><path d="M250.12,286.05a2.73,2.73,0,1,0,2.88,2.73A2.8,2.8,0,0,0,250.12,286.05Z" style="fill: none; stroke: rgb(38, 50, 56); stroke-linecap: round; stroke-linejoin: round; transform-origin: 250.27px 288.777px 0px;" id="elnh7p75c183f" class="animable"></path><path d="M316.73,280.53a8.26,8.26,0,1,0,8.71,8.25A8.48,8.48,0,0,0,316.73,280.53Zm0,11a2.73,2.73,0,1,1,2.88-2.73A2.81,2.81,0,0,1,316.73,291.51Z" style="fill: none; stroke: rgb(38, 50, 56); stroke-linecap: round; stroke-linejoin: round; transform-origin: 317.18px 288.782px 0px;" id="el6e733fgh353" class="animable"></path><path d="M316.73,286.05a2.73,2.73,0,1,0,2.88,2.73A2.81,2.81,0,0,0,316.73,286.05Z" style="fill: none; stroke: rgb(38, 50, 56); stroke-linecap: round; stroke-linejoin: round; transform-origin: 316.88px 288.777px 0px;" id="elwnlxe7szomn" class="animable"></path><path d="M383.34,280.53a8.26,8.26,0,1,0,8.71,8.25A8.48,8.48,0,0,0,383.34,280.53Zm0,11a2.73,2.73,0,1,1,2.88-2.73A2.81,2.81,0,0,1,383.34,291.51Z" style="fill: none; stroke: rgb(38, 50, 56); stroke-linecap: round; stroke-linejoin: round; transform-origin: 383.79px 288.782px 0px;" id="elofwze6i2ey" class="animable"></path><path d="M383.34,286.05a2.73,2.73,0,1,0,2.88,2.73A2.81,2.81,0,0,0,383.34,286.05Z" style="fill: none; stroke: rgb(38, 50, 56); stroke-linecap: round; stroke-linejoin: round; transform-origin: 383.49px 288.777px 0px;" id="elmpht0rd14nb" class="animable"></path><path d="M450,280.53a8.26,8.26,0,1,0,8.7,8.25A8.48,8.48,0,0,0,450,280.53Zm0,11a2.73,2.73,0,1,1,2.88-2.73A2.81,2.81,0,0,1,450,291.51Z" style="fill: none; stroke: rgb(38, 50, 56); stroke-linecap: round; stroke-linejoin: round; transform-origin: 450.44px 288.783px 0px;" id="elztyblly2ozo" class="animable"></path><path d="M450,286.05a2.73,2.73,0,1,0,2.88,2.73A2.81,2.81,0,0,0,450,286.05Z" style="fill: none; stroke: rgb(38, 50, 56); stroke-linecap: round; stroke-linejoin: round; transform-origin: 450.15px 288.777px 0px;" id="el2nvko4g2dy3" class="animable"></path></g><g id="freepik--Plant--inject-3" style="transform-origin: 98.4258px 384.397px 0px;" class="animable"><path d="M140.66,361.83c4.25-1.79,9.25-4.71,9-9.32s-5.84-6.94-10.2-5.91-7.76,4.31-11.24,7.13-7.74,5.41-12.16,4.67q10-12.57,19.93-25.16c2.69-3.39,5.35-8.49,2.33-11.59-1.74-1.77-4.69-1.8-6.93-.73s-3.93,3-5.56,4.87l-17.09,19.77,11.7-28.48c1.32-3.23,2.67-6.58,2.49-10.06s-2.34-7.12-5.75-7.81c-5.62-1.13-9.36,5.51-11.17,11-2.63,7.9-1.78,20.23-4.41,28.13-2.1-4.41-2.76-15.31-5.79-19.54S85,313.7,82.93,318.48c-1.13,2.61-.13,5.6.87,8.27l10.33,27.46c-1.38-3.25-2.88-6.66-5.7-8.78s-7.41-2.34-9.52.48c-3.16,4.22,1.39,9.69,4.92,13.61,6.14,6.81,6.92,20.6,9.2,33.68C93,393.2,125.91,368.06,140.66,361.83Z" style="fill: rgb(255, 193, 0); transform-origin: 113.758px 346.142px 0px;" id="elqxpt6kw0ri" class="animable"></path><path d="M103.77,348.45c-12.2,24.82-10.55,59.89-9.39,94" style="fill: none; stroke: rgb(38, 50, 56); stroke-linecap: round; stroke-linejoin: round; stroke-width: 0.75px; transform-origin: 98.6779px 395.45px 0px;" id="eljx513fwbh1q" class="animable"></path><path d="M96.11,341.71A57.19,57.19,0,0,1,98,363.64" style="fill: none; stroke: rgb(38, 50, 56); stroke-linecap: round; stroke-linejoin: round; stroke-width: 0.75px; transform-origin: 97.2206px 352.675px 0px;" id="el31tcu00au83" class="animable"></path><path d="M111.69,360.94a38.31,38.31,0,0,0-15.12,8.83" style="fill: none; stroke: rgb(38, 50, 56); stroke-linecap: round; stroke-linejoin: round; stroke-width: 0.75px; transform-origin: 104.13px 365.355px 0px;" id="el6oksdromtdi" class="animable"></path><path d="M95.6,469.56l-.72.15-.73-.15c-7-1.54-36-9.71-13.62-36.15h28.68C131.6,459.84,102.6,468,95.6,469.56Z" style="fill: rgb(38, 50, 56); stroke: rgb(38, 50, 56); stroke-linecap: round; stroke-linejoin: round; transform-origin: 94.8731px 451.56px 0px;" id="elnz3cj05uok" class="animable"></path><path d="M90.24,417.55a1.64,1.64,0,0,1-3.11.6c-3.54-6.84-12.34-19.61-31.63-29-18.19-8.83-2.91-30.85,11.24-23.53C82,373.54,93.33,395.24,90.24,417.55Z" style="fill: rgb(255, 193, 0); transform-origin: 68.9664px 391.613px 0px;" id="el1wzhsdihqzs" class="animable"></path><g id="elssjy0pa01qi"><path d="M90.24,417.55a1.64,1.64,0,0,1-3.11.6c-3.54-6.84-12.34-19.61-31.63-29-18.19-8.83-2.91-30.85,11.24-23.53C82,373.54,93.33,395.24,90.24,417.55Z" style="fill: rgb(255, 255, 255); opacity: 0.2; transform-origin: 68.9664px 391.613px 0px;" class="animable"></path></g><path d="M66.13,379.78S86.43,393.64,90.86,429" style="fill: none; stroke: rgb(38, 50, 56); stroke-linecap: round; stroke-linejoin: round; stroke-width: 0.75px; transform-origin: 78.495px 404.39px 0px;" id="elibi8bc6sv39" class="animable"></path><path d="M70.92,384s-6-1.95-15,2.7" style="fill: none; stroke: rgb(38, 50, 56); stroke-linecap: round; stroke-linejoin: round; stroke-width: 0.75px; transform-origin: 63.42px 385.147px 0px;" id="elezaddfzg34" class="animable"></path><path d="M68.58,369.5a33.88,33.88,0,0,1,6.09,18.78" style="fill: none; stroke: rgb(38, 50, 56); stroke-linecap: round; stroke-linejoin: round; stroke-width: 0.75px; transform-origin: 71.625px 378.89px 0px;" id="elmhykk7louf8" class="animable"></path><path d="M80.73,397.25a10.45,10.45,0,0,0-10.22-2" style="fill: none; stroke: rgb(38, 50, 56); stroke-linecap: round; stroke-linejoin: round; stroke-width: 0.75px; transform-origin: 75.62px 395.971px 0px;" id="elkw0mofavbke" class="animable"></path><path d="M83.9,403.52a25.5,25.5,0,0,0,1-13" style="fill: none; stroke: rgb(38, 50, 56); stroke-linecap: round; stroke-linejoin: round; stroke-width: 0.75px; transform-origin: 84.61px 397.02px 0px;" id="elql4l5ctzz7" class="animable"></path><path d="M99,423.66a1.46,1.46,0,0,0,2.69.83c3.7-5.67,12.54-16.06,30.33-22.44,16.77-6,5.23-26.87-7.86-21.79C110.07,385.74,98.22,403.74,99,423.66Z" style="fill: rgb(255, 193, 0); transform-origin: 119.669px 402.318px 0px;" id="el2lu1zb21lxt" class="animable"></path><g id="elrshm30ps6u"><path d="M99,423.66a1.46,1.46,0,0,0,2.69.83c3.7-5.67,12.54-16.06,30.33-22.44,16.77-6,5.23-26.87-7.86-21.79C110.07,385.74,98.22,403.74,99,423.66Z" style="opacity: 0.2; transform-origin: 119.669px 402.318px 0px;" class="animable"></path></g><path d="M123.49,392.76s-19.06,10.24-26,40.93" style="fill: none; stroke: rgb(38, 50, 56); stroke-linecap: round; stroke-linejoin: round; stroke-width: 0.75px; transform-origin: 110.49px 413.225px 0px;" id="elji4tu0ol1z" class="animable"></path><path d="M118.91,396s5.47-1.13,12.92,3.81" style="fill: none; stroke: rgb(38, 50, 56); stroke-linecap: round; stroke-linejoin: round; stroke-width: 0.75px; transform-origin: 125.37px 397.849px 0px;" id="elgv96032w9f6" class="animable"></path><path d="M122.22,383.48a29.61,29.61,0,0,0-7,15.94" style="fill: none; stroke: rgb(38, 50, 56); stroke-linecap: round; stroke-linejoin: round; stroke-width: 0.75px; transform-origin: 118.72px 391.45px 0px;" id="elenmvewa9up" class="animable"></path><path d="M109.14,406.73a9.19,9.19,0,0,1,9.16-.79" style="fill: none; stroke: rgb(38, 50, 56); stroke-linecap: round; stroke-linejoin: round; stroke-width: 0.75px; transform-origin: 113.72px 405.902px 0px;" id="el7bi85j9nf3x" class="animable"></path><path d="M105.81,411.93A22.49,22.49,0,0,1,106,400.4" style="fill: none; stroke: rgb(38, 50, 56); stroke-linecap: round; stroke-linejoin: round; stroke-width: 0.75px; transform-origin: 105.575px 406.165px 0px;" id="elkbysmcb3p8" class="animable"></path><polygon points="79.08 433.41 109.21 433.41 111.04 424.87 77.25 424.87 79.08 433.41" style="fill: rgb(38, 50, 56); stroke: rgb(38, 50, 56); stroke-linecap: round; stroke-linejoin: round; transform-origin: 94.145px 429.14px 0px;" id="elh00tvfm34fm" class="animable"></polygon></g><g id="freepik--Process--inject-3" style="transform-origin: 256.216px 136.081px 0px;" class="animable"><g id="elsiqk7z2o6r"><circle cx="111.73" cy="150.79" r="27.42" style="fill: rgb(255, 255, 255); stroke: rgb(38, 50, 56); stroke-linecap: round; stroke-linejoin: round; transform-origin: 111.73px 150.79px 0px; transform: rotate(-68.14deg);" class="animable"></circle></g><g id="elmqkt89t4uu"><circle cx="197.48" cy="202" r="27.42" style="fill: rgb(255, 255, 255); stroke: rgb(38, 50, 56); stroke-linecap: round; stroke-linejoin: round; transform-origin: 197.48px 202px 0px; transform: rotate(-67.775deg);" class="animable"></circle></g><polyline points="246.92 106.44 249.94 109.46 246.92 112.48" style="fill: none; stroke: rgb(38, 50, 56); stroke-linecap: round; stroke-linejoin: round; transform-origin: 248.43px 109.46px 0px;" id="elw6qex3kx1pk" class="animable"></polyline><line x1="231.23" y1="109.46" x2="248.8" y2="109.46" style="fill: none; stroke: rgb(38, 50, 56); stroke-linecap: round; stroke-linejoin: round; stroke-width: 2px; transform-origin: 240.015px 109.46px 0px;" id="elpt2da50yt09" class="animable"></line><polyline points="244.05 199.91 247.07 202.93 244.05 205.95" style="fill: none; stroke: rgb(38, 50, 56); stroke-linecap: round; stroke-linejoin: round; transform-origin: 245.56px 202.93px 0px;" id="elw0nxyzg2yx8" class="animable"></polyline><line x1="229.11" y1="202.93" x2="246.25" y2="202.93" style="fill: none; stroke: rgb(38, 50, 56); stroke-linecap: round; stroke-linejoin: round; stroke-width: 2px; transform-origin: 237.68px 202.93px 0px;" id="elvzkd1u0uwk" class="animable"></line><polyline points="344.33 106.44 347.35 109.46 344.33 112.48" style="fill: none; stroke: rgb(38, 50, 56); stroke-linecap: round; stroke-linejoin: round; transform-origin: 345.84px 109.46px 0px;" id="elgl8ret5d94" class="animable"></polyline><path d="M320,109.46c0,.43,25.8,0,25.8,0" style="fill: none; stroke: rgb(38, 50, 56); stroke-linecap: round; stroke-linejoin: round; stroke-width: 2px; transform-origin: 332.9px 109.556px 0px;" id="elopo0m0hf05s" class="animable"></path><polyline points="378.39 128.84 382.66 128.84 382.66 133.11" style="fill: none; stroke: rgb(38, 50, 56); stroke-linecap: round; stroke-linejoin: round; transform-origin: 380.525px 130.975px 0px;" id="el7tukcafr2gp" class="animable"></polyline><path d="M314,183.58c.23-.36,67.64-54,67.64-54" style="fill: none; stroke: rgb(38, 50, 56); stroke-linecap: round; stroke-linejoin: round; stroke-width: 2px; transform-origin: 347.82px 156.58px 0px;" id="elsludojkl5s" class="animable"></path><polyline points="139.15 147.93 197.47 147.93 197.47 134.82" style="fill: none; stroke: rgb(38, 50, 56); stroke-linecap: round; stroke-linejoin: round; stroke-width: 2px; transform-origin: 168.31px 141.375px 0px;" id="elc8zicwfcvx8" class="animable"></polyline><g id="el5excmp7pfk5"><circle cx="111.73" cy="60.76" r="27.42" style="fill: rgb(255, 255, 255); stroke: rgb(38, 50, 56); stroke-linecap: round; stroke-linejoin: round; transform-origin: 111.73px 60.76px 0px; transform: rotate(-68.14deg);" class="animable"></circle></g><polyline points="194.46 66.85 197.47 69.87 200.5 66.85" style="fill: none; stroke: rgb(38, 50, 56); stroke-linecap: round; stroke-linejoin: round; transform-origin: 197.48px 68.36px 0px;" id="elkw19x1uly6f" class="animable"></polyline><polyline points="139.15 59.84 197.47 59.84 197.47 69.85" style="fill: none; stroke: rgb(38, 50, 56); stroke-linecap: round; stroke-linejoin: round; stroke-width: 2px; transform-origin: 168.31px 64.845px 0px;" id="elunikobsry6" class="animable"></polyline><polyline points="200.5 137.51 197.47 134.49 194.46 137.51" style="fill: none; stroke: rgb(38, 50, 56); stroke-linecap: round; stroke-linejoin: round; transform-origin: 197.48px 136px 0px;" id="eli1jqpoxbn9i" class="animable"></polyline><polygon points="424.61 72.18 424.61 73.31 424.61 110.89 389.08 127.7 389.08 86.83 424.61 72.18" style="fill: rgb(255, 193, 0); stroke: rgb(38, 50, 56); stroke-linecap: round; stroke-linejoin: round; transform-origin: 406.845px 99.94px 0px;" id="elgr9cc4efg3p" class="animable"></polygon><polygon points="353.55 72.18 353.55 73.31 353.55 110.89 389.08 127.7 389.08 86.83 353.55 72.18" style="fill: rgb(38, 50, 56); stroke: rgb(38, 50, 56); stroke-linecap: round; stroke-linejoin: round; transform-origin: 371.315px 99.94px 0px;" id="elpi7ppulh3s8" class="animable"></polygon><polygon points="424.61 72.18 389.08 86.83 353.55 72.18 389.08 56.15 424.61 72.18" style="fill: rgb(255, 255, 255); stroke: rgb(38, 50, 56); stroke-linecap: round; stroke-linejoin: round; transform-origin: 389.08px 71.49px 0px;" id="elvw8r5ud52q" class="animable"></polygon><polygon points="407.84 78.44 407.84 104.81 414.96 97.68 422.05 104.77 422.05 78.31 407.84 78.44" style="fill: rgb(255, 255, 255); stroke: rgb(38, 50, 56); stroke-linecap: round; stroke-linejoin: round; transform-origin: 414.945px 91.56px 0px;" id="elhq7fnfop8kl" class="animable"></polygon><polygon points="414.94 62.11 418.48 59.84 420.41 63.57 424.6 63.38 424.4 67.57 428.13 69.5 425.87 73.03 428.13 76.56 424.4 78.49 424.6 82.68 420.41 82.49 418.48 86.22 414.94 83.95 411.41 86.22 409.48 82.49 405.29 82.68 405.49 78.49 401.76 76.56 404.02 73.03 401.76 69.5 405.49 67.57 405.29 63.38 409.48 63.57 411.41 59.84 414.94 62.11" style="fill: rgb(255, 193, 0); transform-origin: 414.945px 73.03px 0px;" id="elvo7kl6069gq" class="animable"></polygon><g style="clip-path: url(&quot;#freepik--clip-path--inject-3&quot;); transform-origin: 414.945px 73.03px 0px;" id="elaoafqtjzcna" class="animable"><polygon points="414.94 62.11 418.48 59.84 420.41 63.57 424.6 63.38 424.4 67.57 428.13 69.5 425.87 73.03 428.13 76.56 424.4 78.49 424.6 82.68 420.41 82.49 418.48 86.22 414.94 83.95 411.41 86.22 409.48 82.49 405.29 82.68 405.49 78.49 401.76 76.56 404.02 73.03 401.76 69.5 405.49 67.57 405.29 63.38 409.48 63.57 411.41 59.84 414.94 62.11" style="fill: rgb(255, 255, 255); stroke: rgb(38, 50, 56); stroke-linecap: round; stroke-linejoin: round; transform-origin: 414.945px 73.03px 0px;" id="eld4j0vkmhn3k" class="animable"></polygon></g><polygon points="414.94 62.11 418.48 59.84 420.41 63.57 424.6 63.38 424.4 67.57 428.13 69.5 425.87 73.03 428.13 76.56 424.4 78.49 424.6 82.68 420.41 82.49 418.48 86.22 414.94 83.95 411.41 86.22 409.48 82.49 405.29 82.68 405.49 78.49 401.76 76.56 404.02 73.03 401.76 69.5 405.49 67.57 405.29 63.38 409.48 63.57 411.41 59.84 414.94 62.11" style="fill: none; stroke: rgb(38, 50, 56); stroke-linecap: round; stroke-linejoin: round; transform-origin: 414.945px 73.03px 0px;" id="eleqnhy32r12" class="animable"></polygon><polygon points="316.88 128 316.88 91.17 284.99 72.75 253.09 91.17 253.09 128 284.99 146.42 316.88 128" style="fill: rgb(255, 255, 255); stroke: rgb(38, 50, 56); stroke-linecap: round; stroke-linejoin: round; transform-origin: 284.985px 109.585px 0px;" id="el0i17uykk6zzq" class="animable"></polygon><polygon points="314.02 220.41 314.02 183.58 282.12 165.16 250.22 183.58 250.22 220.41 282.12 238.83 314.02 220.41" style="fill: rgb(255, 255, 255); stroke: rgb(38, 50, 56); stroke-linecap: round; stroke-linejoin: round; transform-origin: 282.12px 201.995px 0px;" id="el92quvpzh59d" class="animable"></polygon><path d="M226,110.47V93.7A14.69,14.69,0,0,0,218.61,81L204.09,72.6a14.71,14.71,0,0,0-14.69,0L174.88,81a14.71,14.71,0,0,0-7.34,12.72v16.77a14.69,14.69,0,0,0,7.34,12.72l14.52,8.38a14.66,14.66,0,0,0,14.69,0l14.52-8.38A14.66,14.66,0,0,0,226,110.47Z" style="fill: rgb(255, 255, 255); stroke: rgb(38, 50, 56); stroke-linecap: round; stroke-linejoin: round; transform-origin: 196.77px 102.099px 0px;" id="elqpyf493arhb" class="animable"></path></g><g id="freepik--Character--inject-3" style="transform-origin: 375.595px 295.224px 0px;" class="animable"><path d="M410.16,121l.07,2.95c0,.28.29,0,.52-.12a4,4,0,0,1,1.91-.85c.34-.06.54-.1.29-.34l-2.16-1.92A.37.37,0,0,0,410.16,121Z" style="fill: rgb(255, 255, 255); stroke: rgb(38, 50, 56); stroke-linecap: round; stroke-linejoin: round; transform-origin: 411.611px 122.342px 0px;" id="elov7ezb37chj" class="animable"></path><path d="M419.93,126.15c-1.71-2.07-3.65-3.37-5.54-3s-2.76-1.24-4,1-2.5,5.25-4,8,2.86,3.91,4,5.81c.94,1.52,3.62,4.31,4.85,6.46a11,11,0,0,1,7.24-2.69c.56-2,1.88-7,1.82-8.7C424.21,130.84,421.65,128.23,419.93,126.15Zm-4.3,7.5-.21.07a1.82,1.82,0,0,1-2.23-1.28L410.68,124c-.07-1.62,1.84-.88,1.84-.88l4.09,8.08a.77.77,0,0,1,.07.16,1.85,1.85,0,0,1,.11.65A1.81,1.81,0,0,1,415.63,133.65Z" style="fill: rgb(255, 255, 255); stroke: rgb(38, 50, 56); stroke-linecap: round; stroke-linejoin: round; transform-origin: 415.191px 133.676px 0px;" id="elybmfmdep7hk" class="animable"></path><path d="M415.42,133.72a1.82,1.82,0,0,1-2.23-1.28L411.24,125c-.07-1.63,1.84-.88,1.84-.88l3.53,7a.77.77,0,0,1,.07.16,1.85,1.85,0,0,1,.11.65,1.81,1.81,0,0,1-1.16,1.69Z" style="fill: rgb(255, 193, 0); stroke: rgb(38, 50, 56); stroke-linecap: round; stroke-linejoin: round; transform-origin: 414.014px 128.865px 0px;" id="elxlxxdl2l5kd" class="animable"></path><path d="M444,172.07c.15,3.79-2.28,17.18-2.28,23,0,7.26-3.92,20.45-5,22.16-.11.18-1.31-4.68-1.49-4.8l-16.36-11.31,7.17-21.7a10.33,10.33,0,0,0-.64-8c-2.82-5.42-7.75-15.87-9.61-25.62a4.86,4.86,0,0,0-.61-1.45,11,11,0,0,1,7.24-2.69C422.32,142.24,443.87,168.27,444,172.07Z" style="fill: rgb(255, 193, 0); transform-origin: 429.593px 179.447px 0px;" id="elcj2w43m2kve" class="animable"></path><g style="clip-path: url(&quot;#freepik--clip-path-2--inject-3&quot;); transform-origin: 426.885px 174.304px 0px;" id="eldrahozgcg0f" class="animable"><g id="el8sua6peztob"><path d="M424.36,173.77c-.12,6.09-2.38,11.91-4.62,17.58a9.75,9.75,0,0,1,8.52,2.33,11.85,11.85,0,0,1,5.77-9.34l-7.84,2.82c2.47-.89,2.71-11.35,2.66-13.45a33.16,33.16,0,0,0-3.16-13.38c-.64-1.37-1.86-4.73-3.41-5.21-2.39-.75-2,.83-1.77,2.32C421.52,163.11,424.47,167.7,424.36,173.77Z" style="opacity: 0.2; transform-origin: 426.885px 174.304px 0px;" class="animable"></path></g></g><path d="M444,172.07c.15,3.79-2.28,17.18-2.28,23,0,7.26-3.92,20.45-5,22.16-.11.18-1.31-4.68-1.49-4.8l-16.36-11.31,7.17-21.7a10.33,10.33,0,0,0-.64-8c-2.82-5.42-7.75-15.87-9.61-25.62a4.86,4.86,0,0,0-.61-1.45,11,11,0,0,1,7.24-2.69C422.32,142.24,443.87,168.27,444,172.07Z" style="fill: none; stroke: rgb(38, 50, 56); stroke-linecap: round; stroke-linejoin: round; transform-origin: 429.593px 179.447px 0px;" id="elak1xzvga6on" class="animable"></path><path d="M416.79,132a1.81,1.81,0,0,1-1.16,1.69l-.21.07a1.82,1.82,0,0,1-2.23-1.28L410.63,124c.23-1.92,2-1,2-1l4,8.15a.77.77,0,0,1,.07.16A1.85,1.85,0,0,1,416.79,132Z" style="fill: rgb(255, 255, 255); stroke: rgb(38, 50, 56); stroke-linecap: round; stroke-linejoin: round; transform-origin: 413.712px 128.301px 0px;" id="elagwgxyn97zc" class="animable"></path><path d="M407.79,145.56c6.46,4,13.21,18.43,12.24,24s-7.83,6.39-7.83,6.39-.52,7.22,8.4,18.28c4,5-17.48,13.79-23.51,11.63s-2.86-8.88-3.29-12.19c-.52-4-.81-6.8-1-8.62a4.26,4.26,0,0,0-2.55-3.52c-2.29-1-3.14-3.14-4.5-3.48-2.77-.7-3.05-3.28-3.53-6-.43-2.51-.84-5.86-.84-5.86-1.07-1.31-2.71-4.56-1.8-6.34.83-1.63,2.78-.29,4.09-1.46,2.12-1.91,2.41-6,4.68-9.72s7.71-4.87,7.71-4.87S401.34,141.59,407.79,145.56Z" style="fill: rgb(255, 255, 255); stroke: rgb(38, 50, 56); stroke-linecap: round; stroke-linejoin: round; transform-origin: 400.204px 174.691px 0px;" id="elaja7cb32rs" class="animable"></path><path d="M384.43,168.4a6.48,6.48,0,0,0,5.71-.41" style="fill: none; stroke: rgb(38, 50, 56); stroke-linecap: round; stroke-linejoin: round; transform-origin: 387.285px 168.433px 0px;" id="el533owni0b9t" class="animable"></path><path d="M389.72,156.28c.62.12.86,1,.62,1.9s-.89,1.57-1.51,1.44-.87-1-.62-1.9S389.1,156.15,389.72,156.28Z" style="fill: rgb(38, 50, 56); transform-origin: 389.273px 157.95px 0px;" id="eldwu84yr37b" class="animable"></path><path d="M388.93,152.74c4.57-.73,4.57,2.59,4.57,2.59" style="fill: none; stroke: rgb(38, 50, 56); stroke-linecap: round; stroke-linejoin: round; transform-origin: 391.215px 153.983px 0px;" id="elfxl429sav9e" class="animable"></path><g id="freepik--freepik--character-5--inject-330--inject-3" style="transform-origin: 372.678px 236.738px 0px;" class="animable"><path d="M388.12,192.49s16.15-11.15,24.84-7.31,10.09,8.76,10.09,8.76S395.53,197.36,388.12,192.49Z" style="fill: rgb(38, 50, 56); stroke: rgb(38, 50, 56); stroke-linecap: round; stroke-linejoin: round; transform-origin: 405.585px 189.741px 0px;" id="eltbmttvo0ti" class="animable"></path><path d="M438.39,284.25c-15,4.13-42,8.24-66.56.46.09-7.22,2.42-25,2.73-28.69,3.58-16.59-5.08-45.44-2.93-53.82a29.06,29.06,0,0,1,3-2.9l5.09-2.36h0c1.26-.6,2.56-1.19,3.82-1.78a60.44,60.44,0,0,1,27-5.74c3.58.08,13.78.32,18.48,5,6.93,6.84,9.6,16.11,7.78,22.88-.27,1-4.16,11.61-4.46,13.29-3.31,18.1-.91,26.73,3.95,44.47.09.33.18.64.27,1A71.7,71.7,0,0,1,438.39,284.25Z" style="fill: rgb(255, 193, 0); transform-origin: 404.836px 239.254px 0px;" id="el2gxgvksto6s" class="animable"></path><g style="clip-path: url(&quot;#freepik--clip-path-3--inject-3&quot;); transform-origin: 405.522px 248.96px 0px;" id="el5o9i1w3o7xj" class="animable"><g id="elh9meckb7507"><path d="M415.79,233.46a14.9,14.9,0,0,0,4.71-4.31c0,4.47-3.45,8.47-7.69,10.75s-9.2,3.17-14,4l-14.31,2.51,4.8,1.76-3.76,4.48c10.52-3.6,22.27-7.2,32.68-3.36-6.72.07-1,11,16.4,26.17-16.8-8.5-45.38-7.59-58.1,3,1.74-9.52.26-15.43,0-22.14-.39-9.94.27-19.8,4.77-31,3.82-13.68,0,0,7.51,6.61C396.84,239,406.49,239.24,415.79,233.46Z" style="opacity: 0.2; transform-origin: 405.522px 248.96px 0px;" class="animable"></path></g></g><path d="M438.39,284.25c-15,4.13-42,8.24-66.56.46.09-7.22,2.42-25,2.73-28.69,3.58-16.59-5.08-45.44-2.93-53.82a29.06,29.06,0,0,1,3-2.9l5.09-2.36h0c1.26-.6,2.56-1.19,3.82-1.78a60.44,60.44,0,0,1,27-5.74c3.58.08,13.78.32,18.48,5,6.93,6.84,9.6,16.11,7.78,22.88-.27,1-4.16,11.61-4.46,13.29-3.31,18.1-.91,26.73,3.95,44.47.09.33.18.64.27,1A71.7,71.7,0,0,1,438.39,284.25Z" style="fill: none; stroke: rgb(38, 50, 56); stroke-linecap: round; stroke-linejoin: round; transform-origin: 404.836px 239.254px 0px;" id="eln3otm3y8o79" class="animable"></path><path d="M309.47,243.29s-3.33-1.8-2.31.16,4.38,3.36,6,4,4.51-.77,4.51-.77Z" style="fill: rgb(255, 255, 255); stroke: rgb(38, 50, 56); stroke-linecap: round; stroke-linejoin: round; transform-origin: 312.318px 245.076px 0px;" id="elp59n6ffe4kp" class="animable"></path><path d="M340.89,239.25s-3.94-2.21-6.6-3.84-8.12-2.19-10.27-1.47-4.67,2.12-6.42,2.6-3.84-.2-3.78,1,.62,1.19,2.26,1.42,4.95.22,4.95.22-3.52,2.33-4.53,3.24-3.82.41-3.82.41-5.16-2.19-4.68-.44,4,3.15,5.95,3.88,2.79,1.58,4.85.55S329.3,241,329.3,241l6.4,4.39Z" style="fill: rgb(255, 255, 255); stroke: rgb(38, 50, 56); stroke-linecap: round; stroke-linejoin: round; transform-origin: 324.429px 240.464px 0px;" id="elm64ku6qi75q" class="animable"></path><path d="M379.73,196.94h0a5.94,5.94,0,0,0-2.57.65,12.48,12.48,0,0,0-2.52,1.71,29.06,29.06,0,0,0-3,2.9,21.61,21.61,0,0,0-2.55,3.36c-2.39,4-4.64,14.8-5.73,21.9-1,6.65-3.4,17.86-3.7,19.28-.1-.51-1.28-3.82-22.11-10.3-.19.54-2.71,1.29-4.24,4.83-1.28,3,.69,3.94.69,3.94,7.16,7.7,23.9,19,30.66,19,7.67,0,9.91-8.15,9.91-8.15,2.5-4.87,11-26.44,11.82-28.26C389.43,221.14,385.68,196.94,379.73,196.94Z" style="fill: rgb(255, 193, 0); transform-origin: 360.174px 230.575px 0px;" id="el0p6d139rz39" class="animable"></path><g style="clip-path: url(&quot;#freepik--clip-path-4--inject-3&quot;); transform-origin: 367.617px 245.984px 0px;" id="eldf71fr0iamg" class="animable"><g id="elh4pedshc7xs"><path d="M385.58,229.68c1.25-1.05-.46-.93-1.87-1.75a4.33,4.33,0,0,0-4.58.52,12.75,12.75,0,0,0-3.09,3.74c-5.67,9-10.13,13.87-15.8,22.84L357.06,249a6.31,6.31,0,0,1-1.54,6.45,4.61,4.61,0,0,1-6.3-.15c1.33,2.71,4.07,4.38,6.68,5.9,3.29,1.92,7,3.92,10.72,3.06a10.22,10.22,0,0,0,5.73-4.15,30.1,30.1,0,0,0,3.23-6.44c3.27-8,5.33-12,8.59-20Z" style="opacity: 0.2; transform-origin: 367.617px 245.984px 0px;" class="animable"></path></g></g><path d="M379.73,196.94h0a5.94,5.94,0,0,0-2.57.65,12.48,12.48,0,0,0-2.52,1.71,29.06,29.06,0,0,0-3,2.9,21.61,21.61,0,0,0-2.55,3.36c-2.39,4-4.64,14.8-5.73,21.9-1,6.65-3.4,17.86-3.7,19.28-.1-.51-1.28-3.82-22.11-10.3-.19.54-2.71,1.29-4.24,4.83-1.28,3,.69,3.94.69,3.94,7.16,7.7,23.9,19,30.66,19,7.67,0,9.91-8.15,9.91-8.15,2.5-4.87,11-26.44,11.82-28.26C389.43,221.14,385.68,196.94,379.73,196.94Z" style="fill: none; stroke: rgb(38, 50, 56); stroke-linecap: round; stroke-linejoin: round; transform-origin: 360.174px 230.575px 0px;" id="eljgz0sv4s2um" class="animable"></path></g><path d="M405.24,162.37c.4-1,1.72-2.34,4.31-2.37,1,0,2.06,1.32,2,2.82-.09,1.91-.92,4.59-3.2,5.61-1.11.5-2.64,2-4,1.2" style="fill: none; stroke: rgb(38, 50, 56); stroke-linecap: round; stroke-linejoin: round; transform-origin: 407.951px 164.93px 0px;" id="elhgpc8d80l2i" class="animable"></path><path d="M367.1,210.36a48.91,48.91,0,0,0,.28,13.88" style="fill: none; stroke: rgb(38, 50, 56); stroke-linecap: round; stroke-linejoin: round; transform-origin: 367.058px 217.3px 0px;" id="eladalmmlh254" class="animable"></path><path d="M359.64,245.5v4.89" style="fill: none; stroke: rgb(38, 50, 56); stroke-linecap: round; stroke-linejoin: round; transform-origin: 359.64px 247.945px 0px;" id="el44w0mufdpdc" class="animable"></path><path d="M423.46,228.59a40.46,40.46,0,0,1-9.12,10.52c-5.93,4.59-14.74,6.89-21.7,3.68" style="fill: none; stroke: rgb(38, 50, 56); stroke-linecap: round; stroke-linejoin: round; transform-origin: 408.05px 236.437px 0px;" id="elozwi14a3ts" class="animable"></path><path d="M427.48,221.74c-.8,1.43-1.61,2.87-2.45,4.29" style="fill: none; stroke: rgb(38, 50, 56); stroke-linecap: round; stroke-linejoin: round; transform-origin: 426.255px 223.885px 0px;" id="elkltc7z8nggr" class="animable"></path><path d="M385.07,253.61a64.36,64.36,0,0,1,30-6.36,6.67,6.67,0,0,1,2.56.44,2,2,0,0,1,1.3,1.9l-13.44,1" style="fill: none; stroke: rgb(38, 50, 56); stroke-linecap: round; stroke-linejoin: round; transform-origin: 402px 250.414px 0px;" id="elywjj8ds9v8p" class="animable"></path><path d="M390.55,133.89c-2.77,1.28-4.39,4.33-4.83,7.36-.2,1.4-.19,2.82-.44,4.21a6,6,0,0,1-1.91,3.69,3.18,3.18,0,0,1-3.9.21,3,3,0,0,0,3.09,2.47,7.87,7.87,0,0,0,4-1.43,11.55,11.55,0,0,1,3.93-1.79c1-.16,2,0,3-.21a6.53,6.53,0,0,0,4.76-4.48C400,138.91,397.28,130.78,390.55,133.89Z" style="fill: rgb(38, 50, 56); stroke: rgb(38, 50, 56); stroke-linecap: round; stroke-linejoin: round; transform-origin: 389.119px 142.517px 0px;" id="elxuh7o9lbv3k" class="animable"></path><path d="M393.92,153.3c2.11.75,5,.92,5.64,3.07.45,1.54-.66,3.32.09,4.74.64,1.19,1.82,7.18,3.23,6.88.71-.14,1.64-6.26,2.26-6.54,1.85-.82,4.62-1.27,5.39.6.84,2-1.83,3.63-2.88,5.55-1.48,2.72-2.65,13.67.31,14.58s7.56,1.41,10.38.11c3.28-1.52,6.8-1,9.5-3.43,3.73-3.33-2.14-34.23-5.37-37.16s-16.1-6.31-20.45-6.6C393.43,134.54,382.14,149.16,393.92,153.3Z" style="fill: rgb(38, 50, 56); stroke: rgb(38, 50, 56); stroke-linecap: round; stroke-linejoin: round; transform-origin: 408.944px 159.082px 0px;" id="elf6thgt231nk" class="animable"></path><path d="M393.63,176.29a14.22,14.22,0,0,0,7.29-4.09" style="fill: none; stroke: rgb(38, 50, 56); stroke-linecap: round; stroke-linejoin: round; transform-origin: 397.275px 174.245px 0px;" id="elftcbnwjfgd" class="animable"></path><path d="M384.08,155l.54,8" style="fill: none; stroke: rgb(38, 50, 56); stroke-linecap: round; stroke-linejoin: round; transform-origin: 384.35px 159px 0px;" id="el2k9nzuvhwn" class="animable"></path><line x1="384.62" y1="160" x2="405.05" y2="161.93" style="fill: none; stroke: rgb(38, 50, 56); stroke-linecap: round; stroke-linejoin: round; transform-origin: 394.835px 160.965px 0px;" id="elssehlshygo" class="animable"></line><path d="M422.61,191a16.32,16.32,0,0,1,10.75-6.31" style="fill: none; stroke: rgb(38, 50, 56); stroke-linecap: round; stroke-linejoin: round; transform-origin: 427.985px 187.845px 0px;" id="elv1g813v2vr" class="animable"></path><path d="M410.58,365.83c-1.36,6.89,0,15.36-.26,22.34,0,8.79,2.66,60.54,2.66,61.51s-3.59,5.52-2.4,8.15,3.54,4.2,5.27,6.45c1.32,1.7,4.4,2.92,7.59,4s8.79,1.66,10.8.69,1.58-3.27,0-4.9a21.82,21.82,0,0,1-3.2-3.25,61.64,61.64,0,0,1-4-12.38c-.8-3.25,2-21,3.58-29.8s4.22-22.17,5-34.55c0-10.19,0-12.94-.77-18.75C434.84,365.29,417.78,360.9,410.58,365.83Z" style="fill: rgb(92, 92, 92); stroke: rgb(38, 50, 56); stroke-linecap: round; stroke-linejoin: round; transform-origin: 422.793px 416.478px 0px;" id="elplmdxll3vzi" class="animable"></path><path d="M428.05,452.76c-13.56-17.26-19.9,2.23-18.82,4.29,1.39,3,4.52,3.46,5.51,6.37s5.35,4.94,8.42,5.82c3.69,1.06,10.26.59,12.55-.52s1.71-2.65-.1-4.52C428.05,456.51,429.1,454.1,428.05,452.76Z" style="fill: rgb(255, 193, 0); stroke: rgb(38, 50, 56); stroke-linecap: round; stroke-linejoin: round; transform-origin: 423.16px 457.76px 0px;" id="elpbrxi7m4ntp" class="animable"></path><path d="M434.87,468.84a4,4,0,0,0,.74-.53c-8.55,2.26-11.92-9.68-18.15-13.24-4.36-1.88-6.71-.31-8.23,1.07,1.52,2.32,8.83,11.05,12.28,12.17S432.7,469.89,434.87,468.84Z" style="fill: rgb(38, 50, 56); stroke: rgb(38, 50, 56); stroke-linecap: round; stroke-linejoin: round; transform-origin: 422.42px 461.818px 0px;" id="elm4khidbopv" class="animable"></path><path d="M418.26,456.51c.63.61-2.38,6.6-3.1,10.25-.62,3.19-5.09,2-5.2,1-.68-6.16-.73-11.76-.73-11.76A6.7,6.7,0,0,1,418.26,456.51Z" style="fill: rgb(255, 193, 0); stroke: rgb(38, 50, 56); stroke-linecap: round; stroke-linejoin: round; transform-origin: 413.788px 461.661px 0px;" id="elgl9krumlgnd" class="animable"></path><path d="M405.07,365.83c1.35,6.89,0,15.36.25,22.34,0,8.79-2.64,60.54-2.64,61.51s3.57,5.52,2.39,8.15-3.53,4.2-5.25,6.45c-1.31,1.7-4.38,2.92-7.56,4s-8.74,1.66-10.74.69-1.57-3.27,0-4.9a21.2,21.2,0,0,0,3.18-3.25,62.25,62.25,0,0,0,4-12.38c.79-3.25-2-21-3.57-29.8s-4.2-22.17-5-34.55c0-10.19-2.35-46.75-1.59-52.57C378.57,331.47,397.9,360.9,405.07,365.83Z" style="fill: rgb(92, 92, 92); stroke: rgb(38, 50, 56); stroke-linecap: round; stroke-linejoin: round; transform-origin: 392.034px 400.492px 0px;" id="el1rwfm4b3ofq" class="animable"></path><path d="M387.68,452.76c13.5-17.26,19.8,2.23,18.72,4.29-1.37,3-4.49,3.46-5.48,6.37s-5.32,4.94-8.37,5.82c-3.68,1.06-10.21.59-12.49-.52s-1.7-2.65.1-4.52C387.68,456.51,386.64,454.1,387.68,452.76Z" style="fill: rgb(255, 193, 0); stroke: rgb(38, 50, 56); stroke-linecap: round; stroke-linejoin: round; transform-origin: 392.544px 457.76px 0px;" id="eltaxcwih2tlm" class="animable"></path><path d="M380.68,469.11a3.15,3.15,0,0,1-.61-.54c7.06,2.26,14.42-9.94,19.56-13.5,3.6-1.88,5.54-.31,6.79,1.07-1.25,2.32-7.28,11.05-10.13,12.17S382.47,470.15,380.68,469.11Z" style="fill: rgb(38, 50, 56); stroke: rgb(38, 50, 56); stroke-linecap: round; stroke-linejoin: round; transform-origin: 393.245px 461.91px 0px;" id="eluq6o7kme9g" class="animable"></path><path d="M399,456.51c-.52.61,2,6.6,2.56,10.25.51,3.19,4.2,2,4.29,1,.57-6.16.6-11.76.6-11.76A4.85,4.85,0,0,0,399,456.51Z" style="fill: rgb(255, 193, 0); stroke: rgb(38, 50, 56); stroke-linecap: round; stroke-linejoin: round; transform-origin: 402.69px 461.663px 0px;" id="elgxbcnl0e9x" class="animable"></path><path d="M443.64,317.51c-3.93,20.36-6.64,27.9-5.37,42a5.24,5.24,0,0,1-.26,2.92,5,5,0,0,1-2.32,1.94,81.34,81.34,0,0,1-26.87,8.54c-6.77.9-18.16-2.32-23.2-6.87s-5.91-19.82-6.59-26.34c-1,3.91-.28,12,.32,21.29-4.05-8.7-4.14-16.82-4.66-26.39-.9-16.65-3.5-33.31-2.7-50,.66-13.55,54.17-21.45,65.21-6.12C442.14,285.36,445.67,307,443.64,317.51Z" style="fill: rgb(38, 50, 56); stroke: rgb(38, 50, 56); stroke-linecap: round; stroke-linejoin: round; transform-origin: 408.032px 321.581px 0px;" id="el85b6xk2f3zt" class="animable"></path><path d="M414.09,325.28c-2.14,11.05-7.32,21.6-9,32.81" style="fill: none; stroke: rgb(92, 92, 92); stroke-linecap: round; stroke-linejoin: round; transform-origin: 409.59px 341.685px 0px;" id="elr4klda8bw5k" class="animable"></path><path d="M415,318.05c-.05,1.1-.14,2.19-.27,3.28" style="fill: none; stroke: rgb(92, 92, 92); stroke-linecap: round; stroke-linejoin: round; transform-origin: 414.865px 319.69px 0px;" id="el2tq9l34pvv6" class="animable"></path><path d="M412.5,356.24c-1.22-5.33-1.16-12.94-1.87-18.37" style="fill: none; stroke: rgb(92, 92, 92); stroke-linecap: round; stroke-linejoin: round; transform-origin: 411.565px 347.055px 0px;" id="elmq2nc582qum" class="animable"></path></g><g id="freepik--Floor--inject-3" style="transform-origin: 250.17px 469.87px 0px;" class="animable"><line x1="27.03" y1="469.87" x2="473.31" y2="469.87" style="fill: rgb(255, 255, 255); stroke: rgb(38, 50, 56); stroke-linecap: round; stroke-linejoin: round; transform-origin: 250.17px 469.87px 0px;" id="elqwdxxzdwgpo" class="animable"></line></g><defs>     <filter id="active" height="200%">         <feMorphology in="SourceAlpha" result="DILATED" operator="dilate" radius="2"></feMorphology>                <feFlood flood-color="#32DFEC" flood-opacity="1" result="PINK"></feFlood>        <feComposite in="PINK" in2="DILATED" operator="in" result="OUTLINE"></feComposite>        <feMerge>            <feMergeNode in="OUTLINE"></feMergeNode>            <feMergeNode in="SourceGraphic"></feMergeNode>        </feMerge>    </filter>    <filter id="hover" height="200%">        <feMorphology in="SourceAlpha" result="DILATED" operator="dilate" radius="2"></feMorphology>                <feFlood flood-color="#ff0000" flood-opacity="0.5" result="PINK"></feFlood>        <feComposite in="PINK" in2="DILATED" operator="in" result="OUTLINE"></feComposite>        <feMerge>            <feMergeNode in="OUTLINE"></feMergeNode>            <feMergeNode in="SourceGraphic"></feMergeNode>        </feMerge>            <feColorMatrix type="matrix" values="0   0   0   0   0                0   1   0   0   0                0   0   0   0   0                0   0   0   1   0 "></feColorMatrix>    </filter></defs><defs><clipPath id="freepik--clip-path--inject-3"><polygon points="414.94 62.11 418.48 59.84 420.41 63.57 424.6 63.38 424.4 67.57 428.13 69.5 425.87 73.03 428.13 76.56 424.4 78.49 424.6 82.68 420.41 82.49 418.48 86.22 414.94 83.95 411.41 86.22 409.48 82.49 405.29 82.68 405.49 78.49 401.76 76.56 404.02 73.03 401.76 69.5 405.49 67.57 405.29 63.38 409.48 63.57 411.41 59.84 414.94 62.11" style="fill:#FFC100;stroke:#263238;stroke-linecap:round;stroke-linejoin:round"></polygon></clipPath><clipPath id="freepik--clip-path-2--inject-3"><path d="M444,172.07c.15,3.79-2.28,17.18-2.28,23,0,7.26-3.92,20.45-5,22.16-.11.18-1.31-4.68-1.49-4.8l-16.36-11.31,7.17-21.7a10.33,10.33,0,0,0-.64-8c-2.82-5.42-7.75-15.87-9.61-25.62a4.86,4.86,0,0,0-.61-1.45,11,11,0,0,1,7.24-2.69C422.32,142.24,443.87,168.27,444,172.07Z" style="fill:#FFC100;stroke:#263238;stroke-linecap:round;stroke-linejoin:round"></path></clipPath><clipPath id="freepik--clip-path-3--inject-3"><path d="M438.39,284.25c-15,4.13-42,8.24-66.56.46.09-7.22,2.42-25,2.73-28.69,3.58-16.59-5.08-45.44-2.93-53.82a29.06,29.06,0,0,1,3-2.9l5.09-2.36h0c1.26-.6,2.56-1.19,3.82-1.78a60.44,60.44,0,0,1,27-5.74c3.58.08,13.78.32,18.48,5,6.93,6.84,9.6,16.11,7.78,22.88-.27,1-4.16,11.61-4.46,13.29-3.31,18.1-.91,26.73,3.95,44.47.09.33.18.64.27,1A71.7,71.7,0,0,1,438.39,284.25Z" style="fill:#FFC100;stroke:#263238;stroke-linecap:round;stroke-linejoin:round"></path></clipPath><clipPath id="freepik--clip-path-4--inject-3"><path d="M379.73,196.94h0a5.94,5.94,0,0,0-2.57.65,12.48,12.48,0,0,0-2.52,1.71,29.06,29.06,0,0,0-3,2.9,21.61,21.61,0,0,0-2.55,3.36c-2.39,4-4.64,14.8-5.73,21.9-1,6.65-3.4,17.86-3.7,19.28-.1-.51-1.28-3.82-22.11-10.3-.19.54-2.71,1.29-4.24,4.83-1.28,3,.69,3.94.69,3.94,7.16,7.7,23.9,19,30.66,19,7.67,0,9.91-8.15,9.91-8.15,2.5-4.87,11-26.44,11.82-28.26C389.43,221.14,385.68,196.94,379.73,196.94Z" style="fill:#FFC100;stroke:#263238;stroke-linecap:round;stroke-linejoin:round"></path></clipPath></defs></svg>